<svg width="1136" height="327" viewBox="0 0 1136 327" fill="none" xmlns="http://www.w3.org/2000/svg">
<path d="M552.077 131V38.264H562.638V131H552.077ZM557.486 131V121.726H610.294V131H557.486ZM653.64 132.288C642.477 132.288 633.761 128.896 627.493 122.113C621.311 115.243 618.22 105.669 618.22 93.3904V38.264H628.781V93.9056C628.781 103.179 630.928 110.306 635.221 115.286C639.515 120.267 645.654 122.757 653.64 122.757C661.797 122.757 668.022 120.31 672.316 115.415C676.609 110.435 678.756 103.265 678.756 93.9056V38.264H689.317V93.5192C689.317 105.712 686.183 115.243 679.915 122.113C673.647 128.896 664.888 132.288 653.64 132.288ZM710.687 131V38.264H721.249V131H710.687ZM740.041 131V123.014L794.524 42.2568L798.388 47.5376H741.329V38.264H804.312V46.2496L749.83 127.007L745.966 121.726H805.6V131H740.041ZM552.077 288V195.264H588.914C595.525 195.264 601.15 196.337 605.786 198.484C610.423 200.631 613.944 203.722 616.348 207.758C618.838 211.793 620.083 216.645 620.083 222.312C620.083 227.979 618.838 232.874 616.348 236.995C613.944 241.031 610.423 244.165 605.786 246.398C601.15 248.63 595.525 249.746 588.914 249.746H559.805V240.473H588.527C595.397 240.473 600.591 238.927 604.112 235.836C607.718 232.659 609.522 228.151 609.522 222.312C609.522 216.473 607.761 212.051 604.241 209.046C600.72 206.04 595.482 204.538 588.527 204.538H562.638V288H552.077ZM675.263 289.288C668.823 289.288 662.898 288.129 657.489 285.81C652.165 283.406 647.528 280.057 643.578 275.764C639.628 271.385 636.537 266.276 634.305 260.437C632.158 254.598 631.085 248.201 631.085 241.246C631.085 232.058 632.974 223.901 636.752 216.774C640.53 209.647 645.725 204.065 652.337 200.03C659.034 195.994 666.633 193.976 675.134 193.976C683.807 193.976 691.449 195.994 698.061 200.03C704.758 204.065 709.996 209.647 713.774 216.774C717.552 223.901 719.441 232.101 719.441 241.374C719.441 248.33 718.325 254.727 716.093 260.566C713.946 266.405 710.898 271.471 706.948 275.764C702.998 280.057 698.318 283.406 692.909 285.81C687.499 288.129 681.617 289.288 675.263 289.288ZM675.134 279.757C681.746 279.757 687.542 278.125 692.522 274.862C697.588 271.514 701.538 266.92 704.372 261.081C707.205 255.242 708.622 248.587 708.622 241.117C708.622 233.732 707.205 227.206 704.372 221.539C701.624 215.872 697.717 211.45 692.651 208.273C687.671 205.096 681.832 203.507 675.134 203.507C668.437 203.507 662.598 205.096 657.617 208.273C652.637 211.45 648.773 215.872 646.025 221.539C643.278 227.121 641.904 233.646 641.904 241.117C641.904 248.673 643.278 255.371 646.025 261.21C648.859 266.963 652.766 271.514 657.746 274.862C662.726 278.125 668.522 279.757 675.134 279.757ZM768.151 289.159C757.332 289.159 748.702 286.497 742.262 281.174C735.908 275.85 732.173 268.251 731.056 258.376H741.36C742.305 265.503 745.01 270.87 749.475 274.476C753.94 278.082 760.122 279.886 768.022 279.886C774.72 279.886 779.743 278.641 783.092 276.15C786.526 273.574 788.244 269.839 788.244 264.945C788.244 260.737 787.084 257.389 784.766 254.898C782.448 252.408 778.841 250.347 773.947 248.716L758.362 243.306C750.462 240.559 744.623 237.253 740.845 233.389C737.067 229.439 735.178 224.459 735.178 218.448C735.178 213.468 736.423 209.174 738.913 205.568C741.403 201.876 744.924 198.999 749.475 196.938C754.026 194.878 759.307 193.847 765.317 193.847C774.591 193.847 782.018 196.294 787.6 201.189C793.181 205.997 796.401 212.867 797.26 221.797H786.956C785.839 215.357 783.521 210.634 780 207.629C776.566 204.623 771.586 203.121 765.06 203.121C758.877 203.121 754.069 204.366 750.634 206.856C747.199 209.346 745.482 212.867 745.482 217.418C745.482 221.282 746.684 224.373 749.088 226.691C751.493 229.01 755.228 231.027 760.294 232.745L776.909 238.541C784.122 241.031 789.532 244.423 793.138 248.716C796.744 252.923 798.548 258.29 798.548 264.816C798.548 272.544 795.886 278.555 790.562 282.848C785.324 287.055 777.854 289.159 768.151 289.159ZM846.513 289.159C835.693 289.159 827.064 286.497 820.624 281.174C814.27 275.85 810.534 268.251 809.418 258.376H819.722C820.667 265.503 823.372 270.87 827.837 274.476C832.302 278.082 838.484 279.886 846.384 279.886C853.081 279.886 858.105 278.641 861.453 276.15C864.888 273.574 866.605 269.839 866.605 264.945C866.605 260.737 865.446 257.389 863.128 254.898C860.809 252.408 857.203 250.347 852.309 248.716L836.724 243.306C828.824 240.559 822.985 237.253 819.207 233.389C815.429 229.439 813.54 224.459 813.54 218.448C813.54 213.468 814.785 209.174 817.275 205.568C819.765 201.876 823.286 198.999 827.837 196.938C832.388 194.878 837.668 193.847 843.679 193.847C852.953 193.847 860.38 196.294 865.961 201.189C871.543 205.997 874.763 212.867 875.621 221.797H865.317C864.201 215.357 861.883 210.634 858.362 207.629C854.928 204.623 849.947 203.121 843.421 203.121C837.239 203.121 832.43 204.366 828.996 206.856C825.561 209.346 823.844 212.867 823.844 217.418C823.844 221.282 825.046 224.373 827.45 226.691C829.854 229.01 833.59 231.027 838.656 232.745L855.271 238.541C862.484 241.031 867.893 244.423 871.5 248.716C875.106 252.923 876.909 258.29 876.909 264.816C876.909 272.544 874.248 278.555 868.924 282.848C863.686 287.055 856.216 289.159 846.513 289.159ZM884.995 288L920.801 195.264H930.075L895.17 288H884.995ZM958.668 288L923.763 195.264H933.681L969.487 288H958.668ZM902.769 250.519H951.198V259.793H902.769V250.519ZM994.541 288V204.538H962.727V195.264H1036.92V204.538H1005.1V288H994.541ZM1085.18 289.288C1078.74 289.288 1072.82 288.129 1067.41 285.81C1062.09 283.406 1057.45 280.057 1053.5 275.764C1049.55 271.385 1046.46 266.276 1044.23 260.437C1042.08 254.598 1041.01 248.201 1041.01 241.246C1041.01 232.058 1042.89 223.901 1046.67 216.774C1050.45 209.647 1055.65 204.065 1062.26 200.03C1068.96 195.994 1076.55 193.976 1085.06 193.976C1093.73 193.976 1101.37 195.994 1107.98 200.03C1114.68 204.065 1119.92 209.647 1123.7 216.774C1127.47 223.901 1129.36 232.101 1129.36 241.374C1129.36 248.33 1128.25 254.727 1126.01 260.566C1123.87 266.405 1120.82 271.471 1116.87 275.764C1112.92 280.057 1108.24 283.406 1102.83 285.81C1097.42 288.129 1091.54 289.288 1085.18 289.288ZM1085.06 279.757C1091.67 279.757 1097.46 278.125 1102.44 274.862C1107.51 271.514 1111.46 266.92 1114.29 261.081C1117.13 255.242 1118.54 248.587 1118.54 241.117C1118.54 233.732 1117.13 227.206 1114.29 221.539C1111.55 215.872 1107.64 211.45 1102.57 208.273C1097.59 205.096 1091.75 203.507 1085.06 203.507C1078.36 203.507 1072.52 205.096 1067.54 208.273C1062.56 211.45 1058.69 215.872 1055.95 221.539C1053.2 227.121 1051.82 233.646 1051.82 241.117C1051.82 248.673 1053.2 255.371 1055.95 261.21C1058.78 266.963 1062.69 271.514 1067.67 274.862C1072.65 278.125 1078.44 279.757 1085.06 279.757Z" fill="white"/>
<path d="M60 113H6" stroke="#E8920F" stroke-width="12" stroke-linecap="round" stroke-linejoin="round"/>
<path d="M84 201.765L57 155" stroke="#E8920F" stroke-width="12" stroke-linecap="round" stroke-linejoin="round"/>
<path d="M466 304.765L493 258" stroke="#364898" stroke-width="12" stroke-linecap="round" stroke-linejoin="round"/>
<path d="M117 6L57 113L117 216.5H245.5" stroke="#E8920F" stroke-width="12" stroke-linecap="round" stroke-linejoin="round"/>
<path d="M434.5 217.5H493L434.5 320.5H306L246 217.5L306 110.5H434.5L467 78" stroke="#364898" stroke-width="12" stroke-linecap="round" stroke-linejoin="round"/>
</svg>
