<svg width="1000" height="1000" viewBox="0 0 1000 1000" fill="none" xmlns="http://www.w3.org/2000/svg">
<path d="M527.901 879.125V964.417H492.809C487.448 964.417 482.737 963.32 478.675 961.127C474.533 959.015 471.324 956.009 469.05 952.11C466.694 948.211 465.516 943.581 465.516 938.22V936.514C465.516 931.234 466.735 926.604 469.171 922.624C471.527 918.725 474.776 915.679 478.919 913.486C482.981 911.374 487.611 910.318 492.809 910.318H511.817V879.125H527.901ZM511.817 924.939H494.393C490.575 924.939 487.489 925.995 485.133 928.107C482.777 930.219 481.6 933.103 481.6 936.758V937.976C481.6 941.632 482.777 944.515 485.133 946.627C487.489 948.739 490.575 949.795 494.393 949.795H511.817V924.939Z" fill="white"/>
<path d="M462.819 879.252L424.19 958.53L396.705 953.063L391.356 865.037L407.608 868.27L408.488 887.577L438.364 893.519L446.566 876.019L462.819 879.252ZM431.76 907.362L409.293 902.893L411.345 945.664L413.496 946.092L431.76 907.362Z" fill="white"/>
<path d="M361.486 853.206L328.846 932.005L313.987 925.85L346.626 847.051L361.486 853.206Z" fill="white"/>
<path d="M230.774 765.148C233.071 767.446 234.278 770.145 234.392 773.247C234.392 776.348 233.186 779.105 230.774 781.518C228.361 783.93 225.633 785.108 222.589 785.05C219.43 784.993 216.702 783.815 214.404 781.518C212.049 779.163 210.872 776.435 210.872 773.333C210.814 770.289 211.992 767.56 214.404 765.148C216.816 762.736 219.573 761.529 222.675 761.529C225.719 761.587 228.419 762.793 230.774 765.148Z" fill="white"/>
<path d="M165.915 685.91L87.1159 718.55L75.6921 690.97L138.718 648.906L137.878 646.88L63.5688 661.702L52.145 634.123L130.944 601.483L136.912 615.892L69.0326 644.009L69.8719 646.035L143.347 631.427L153.512 655.967L91.2275 697.592L92.0668 699.618L159.946 671.502L165.915 685.91Z" fill="white"/>
<path d="M134.714 610.913L46.6879 605.564L41.2207 578.078L120.499 539.45L123.732 555.703L106.232 563.905L112.174 593.78L131.481 594.661L134.714 610.913ZM96.8582 592.976L92.3893 570.509L53.6591 588.773L54.087 590.924L96.8582 592.976Z" fill="white"/>
<path d="M120 528.067H34.7088L34.7088 491.027C34.7088 485.665 35.6429 480.995 37.5112 477.014C39.3795 473.034 42.0195 469.947 45.4311 467.754C48.8428 465.561 52.8636 464.464 57.4937 464.464H58.9559C64.0733 464.464 68.2161 465.683 71.384 468.12C74.552 470.557 76.867 473.562 78.3292 477.136H80.5224C80.6848 473.887 81.822 471.369 83.934 469.582C85.9648 467.795 88.6859 466.901 92.0976 466.901L120 466.901V482.985L94.4126 482.985C92.4631 482.985 90.8791 483.513 89.6607 484.569C88.4423 485.544 87.833 487.209 87.833 489.564V511.984L120 511.984L120 528.067ZM73.2117 511.984V492.732C73.2117 488.915 72.1963 485.95 70.1656 483.838C68.0536 481.645 65.2918 480.548 61.8801 480.548H60.6617C57.25 480.548 54.5289 481.604 52.4981 483.716C50.3861 485.828 49.3302 488.833 49.3302 492.732L49.3302 511.984H73.2117Z" fill="white"/>
<path d="M125.782 433.133L42.1295 416.494L45.2672 400.719L128.92 417.359L125.782 433.133Z" fill="white"/>
<path d="M135.653 386.264L122.595 380.855L126.885 370.499L74.2025 348.677L69.9128 359.033L56.8547 353.624L70.2835 321.204C74.6665 310.623 80.6943 303.712 88.3669 300.472C95.9955 297.125 105.101 297.644 115.682 302.027L130.541 308.181C141.123 312.564 147.965 318.652 151.068 326.443C154.127 334.129 153.465 343.262 149.082 353.844L135.653 386.264ZM132.59 355.453L135.667 348.023C138.154 342.02 138.397 336.977 136.395 332.894C134.393 328.812 130.54 325.59 124.837 323.227L109.077 316.699C103.298 314.306 98.2956 313.86 94.0685 315.362C89.7664 316.833 86.3719 320.571 83.8851 326.575L80.8077 334.004L132.59 355.453Z" fill="white"/>
<path d="M185.887 288.89C179.93 297.805 172.76 303.272 164.377 305.291C155.927 307.265 147.143 305.205 138.025 299.113L121.005 287.74C111.887 281.648 106.656 274.343 105.314 265.826C103.903 257.263 106.176 248.524 112.133 239.609C118.09 230.694 125.294 225.249 133.745 223.275C142.128 221.257 150.878 223.293 159.996 229.386L177.016 240.758C186.134 246.851 191.398 254.178 192.808 262.741C194.151 271.258 191.844 279.974 185.887 288.89ZM173.933 280.902C177.272 275.904 178.415 271.05 177.361 266.34C176.307 261.631 173.349 257.651 168.486 254.402L150.655 242.488C145.792 239.239 140.984 238.028 136.229 238.857C131.475 239.685 127.428 242.599 124.088 247.597C120.794 252.527 119.651 257.381 120.66 262.158C121.714 266.868 124.672 270.847 129.535 274.097L147.365 286.011C152.228 289.26 157.037 290.47 161.792 289.642C166.591 288.745 170.638 285.832 173.933 280.902Z" fill="white"/>
<path d="M291.521 184.129C288.82 185.935 285.937 186.591 282.872 186.098C279.83 185.493 277.362 183.772 275.466 180.936C273.571 178.099 272.948 175.194 273.598 172.219C274.271 169.132 275.958 166.686 278.66 164.88C281.429 163.03 284.334 162.408 287.377 163.013C290.373 163.55 292.82 165.237 294.715 168.074C296.61 170.911 297.256 173.85 296.651 176.892C296 179.867 294.291 182.279 291.521 184.129Z" fill="white"/>
<path d="M401.984 131.975L385.345 48.3224L437.926 37.8633L440.779 52.2037L403.972 59.5251L407.989 79.7212L441.928 72.9703L444.78 87.3107L410.841 94.0616L417.759 128.837L401.984 131.975Z" fill="white"/>
<path d="M491.795 120L491.795 34.7088L507.878 34.7088V120H491.795Z" fill="white"/>
<path d="M550.106 122.617L566.745 38.9648L582.52 42.1025L568.733 111.414L606.974 119.021L604.121 133.361L550.106 122.617Z" fill="white"/>
<path d="M614.743 136.435L647.382 57.6366L662.241 63.7915L648.766 96.3241L678.034 108.447L691.509 75.9148L706.369 82.0696L673.729 160.868L658.87 154.714L672.439 121.956L643.171 109.833L629.602 142.59L614.743 136.435Z" fill="white"/>
<path d="M710.233 185.885C701.318 179.928 695.851 172.758 693.832 164.375C691.858 155.924 693.917 147.14 700.01 138.022L711.382 121.002C717.475 111.884 724.78 106.654 733.297 105.311C741.859 103.901 750.598 106.174 759.514 112.131C768.429 118.088 773.873 125.292 775.847 133.742C777.866 142.125 775.829 150.876 769.737 159.993L758.364 177.014C752.272 186.131 744.945 191.396 736.382 192.806C727.865 194.149 719.148 191.842 710.233 185.885ZM718.221 173.93C723.219 177.27 728.073 178.412 732.782 177.359C737.492 176.305 741.471 173.346 744.721 168.483L756.635 150.653C759.884 145.79 761.094 140.981 760.266 136.227C759.437 131.472 756.524 127.425 751.526 124.086C746.595 120.791 741.742 119.648 736.964 120.657C732.255 121.711 728.275 124.67 725.026 129.532L713.112 147.363C709.863 152.226 708.652 157.035 709.481 161.789C710.377 166.589 713.29 170.636 718.221 173.93Z" fill="white"/>
<path d="M814.999 291.518C813.193 288.816 812.537 285.933 813.029 282.869C813.635 279.827 815.355 277.358 818.192 275.463C821.029 273.567 823.934 272.945 826.909 273.595C829.996 274.268 832.442 275.955 834.247 278.656C836.098 281.425 836.72 284.331 836.115 287.373C835.578 290.37 833.891 292.816 831.054 294.712C828.217 296.607 825.278 297.252 822.236 296.647C819.261 295.997 816.849 294.287 814.999 291.518Z" fill="white"/>
<path d="M870.313 417.895L953.966 401.255L957.103 417.03L873.451 433.669L870.313 417.895Z" fill="white"/>
<path d="M879.125 471.058H964.416V508.099C964.416 513.46 963.482 518.131 961.614 522.111C959.745 526.091 957.106 529.178 953.694 531.371C950.282 533.564 946.261 534.661 941.631 534.661H940.169C935.052 534.661 930.909 533.443 927.741 531.006C924.573 528.569 922.258 525.563 920.796 521.989H918.603C918.44 525.238 917.303 527.756 915.191 529.544C913.16 531.331 910.439 532.224 907.027 532.224H879.125V516.141H904.712C906.662 516.141 908.246 515.613 909.464 514.557C910.683 513.582 911.292 511.917 911.292 509.561V487.142H879.125V471.058ZM925.913 487.142V506.393C925.913 510.211 926.929 513.176 928.959 515.288C931.071 517.481 933.833 518.578 937.245 518.578H938.463C941.875 518.578 944.596 517.522 946.627 515.41C948.739 513.298 949.795 510.292 949.795 506.393V487.142H925.913Z" fill="white"/>
<path d="M880.507 529.986L964.16 546.625L958.336 575.904L882.562 575.863L882.135 578.015L952.155 606.975L946.331 636.253L862.679 619.613L865.722 604.317L937.782 618.651L938.21 616.5L869.002 587.826L874.184 561.774L949.097 561.767L949.525 559.616L877.465 545.282L880.507 529.986Z" fill="white"/>
<path d="M864.791 609.676L935.01 663.028L924.286 688.919L836.908 676.992L843.249 661.683L862.357 664.586L874.014 636.444L858.45 624.985L864.791 609.676ZM886.302 645.622L877.536 666.785L919.885 673.117L920.725 671.09L886.302 645.622ZM940.282 664.948L949.007 660.121L952.356 665.729C953.597 667.825 954.395 669.826 954.749 671.731C955.072 673.712 954.798 675.752 953.927 677.854C953.181 679.655 952.313 681.009 951.321 681.917C950.329 682.825 949.044 683.7 947.465 684.54C946.554 685.042 945.605 685.528 944.619 685.999C943.676 686.576 942.972 687.427 942.506 688.553C942.008 689.754 941.979 690.885 942.419 691.946C942.859 693.007 943.351 694.047 943.897 695.064L945.581 698.004L936.856 702.83L933.507 697.223C932.266 695.126 931.484 693.087 931.161 691.107C930.807 689.202 931.065 687.199 931.935 685.098C932.682 683.297 933.55 681.942 934.542 681.034C935.534 680.126 936.819 679.252 938.398 678.411C939.309 677.909 940.236 677.37 941.178 676.793C942.165 676.322 942.891 675.524 943.357 674.398C943.855 673.198 943.883 672.067 943.444 671.005C943.004 669.944 942.511 668.905 941.966 667.887L940.282 664.948Z" fill="white"/>
<path d="M813.24 710.236C819.197 701.321 826.367 695.854 834.75 693.835C843.2 691.861 851.984 693.92 861.102 700.013L878.122 711.385C887.24 717.478 892.471 724.782 893.813 733.3C895.224 741.862 892.951 750.601 886.994 759.517C881.037 768.432 873.833 773.876 865.382 775.85C856.999 777.869 848.249 775.832 839.131 769.74L822.111 758.367C812.993 752.275 807.729 744.947 806.319 736.385C804.976 727.868 807.283 719.151 813.24 710.236ZM825.194 718.224C821.855 723.222 820.712 728.075 821.766 732.785C822.82 737.495 825.778 741.474 830.641 744.724L848.472 756.638C853.335 759.887 858.143 761.097 862.898 760.269C867.652 759.44 871.699 756.527 875.039 751.529C878.333 746.598 879.476 741.745 878.467 736.967C877.413 732.258 874.455 728.278 869.592 725.029L851.762 713.115C846.899 709.866 842.09 708.655 837.335 709.484C832.536 710.38 828.489 713.293 825.194 718.224Z" fill="white"/>
<path d="M707.604 814.996C710.305 813.191 713.188 812.535 716.253 813.027C719.295 813.632 721.763 815.353 723.659 818.19C725.554 821.026 726.177 823.932 725.527 826.906C724.854 829.994 723.167 832.44 720.465 834.245C717.696 836.095 714.791 836.718 711.748 836.113C708.752 835.575 706.305 833.888 704.41 831.051C702.515 828.215 701.869 825.275 702.474 822.233C703.125 819.259 704.834 816.846 707.604 814.996Z" fill="white"/>
</svg>
