<svg width="1000" height="999" viewBox="0 0 1000 999" fill="none" xmlns="http://www.w3.org/2000/svg">
<path d="M466.605 873.532C476.694 874.44 484.462 878.069 489.912 884.417C495.354 890.846 497.57 899.67 496.56 910.888L494.817 930.258C493.807 941.477 490.055 949.723 483.56 954.996C477.057 960.35 468.761 962.573 458.673 961.665C448.665 960.765 441.249 957.29 436.423 951.242C431.517 945.186 429.499 937.316 430.371 927.631L430.426 927.026L440.474 927.93L440.387 928.899C439.813 935.275 441.079 940.637 444.187 944.984C447.206 949.405 452.307 951.939 459.49 952.586C466.673 953.232 472.482 951.518 476.917 947.442C481.345 943.447 483.914 937.495 484.626 929.585L486.413 909.731C487.125 901.822 485.663 895.466 482.027 890.664C478.384 885.942 472.971 883.259 465.788 882.612C458.605 881.966 453.137 883.507 449.384 887.238C445.543 891.042 443.336 896.131 442.762 902.507L442.588 904.444L432.539 903.54L432.681 901.966C433.553 892.281 436.943 884.898 442.851 879.815C448.679 874.726 456.597 872.632 466.605 873.532Z" fill="white"/>
<path d="M405.769 864.792L383.133 946.812L373.291 944.096L395.927 862.076L405.769 864.792Z" fill="white"/>
<path d="M356.377 849.011L319.459 925.671L272.259 902.94L276.267 894.617L314.268 912.918L326.609 887.292L291.674 870.468L295.682 862.145L330.617 878.968L343.169 852.904L304.62 834.34L308.629 826.017L356.377 849.011Z" fill="white"/>
<path d="M302.733 822.503L252.721 891.338L236.692 879.693L258.923 798.636L257.645 797.707L211.419 861.331L203.257 855.401L253.269 786.565L269.298 798.211L246.897 879.295L248.274 880.295L294.571 816.573L302.733 822.503Z" fill="white"/>
<path d="M230.699 763.879L175.876 816.295L194.776 836.062L188.099 842.446L143.244 795.531L149.921 789.147L168.82 808.915L223.643 756.499L230.699 763.879Z" fill="white"/>
<path d="M188.04 712.1L117.03 758.973L111.405 750.452L182.416 703.578L188.04 712.1Z" fill="white"/>
<path d="M153.27 644.761C155.691 650.424 156.85 655.921 156.749 661.251C156.649 666.582 155.144 671.411 152.235 675.739C149.219 680.024 144.656 683.472 138.546 686.084L136.199 687.087L132.234 677.81L134.581 676.807C141.064 674.036 145.095 670.066 146.675 664.896C148.18 659.759 147.659 654.209 145.111 648.248C142.499 642.138 139.13 638.07 135.004 636.045C130.877 634.019 126.728 633.898 122.555 635.681C119.649 636.923 117.658 638.656 116.581 640.879C115.472 643.027 114.954 645.628 115.025 648.682C115.022 651.767 115.359 655.236 116.036 659.089L117.068 665.522C117.818 670.577 118.085 675.222 117.868 679.456C117.651 683.691 116.594 687.403 114.697 690.594C112.694 693.741 109.494 696.254 105.098 698.133C100.701 700.013 96.4393 700.556 92.3116 699.765C88.1521 698.899 84.3714 696.858 80.9697 693.641C77.5361 690.35 74.7046 686.096 72.4752 680.88C70.2139 675.59 69.123 670.46 69.2023 665.491C69.1752 660.48 70.4405 656.017 72.9979 652.104C75.4491 648.148 79.3571 645.024 84.722 642.731L89.4163 640.724L93.3815 650.001L88.6872 652.008C84.887 653.632 82.1823 655.758 80.573 658.384C78.932 660.936 78.1577 663.867 78.2502 667.176C78.3109 670.411 79.1056 673.816 80.6344 677.393C82.8319 682.534 85.7544 686.176 89.402 688.319C92.975 690.493 96.8479 690.688 101.021 688.904C103.778 687.726 105.726 686.1 106.867 684.026C108.007 681.952 108.611 679.447 108.678 676.511C108.67 673.606 108.343 670.264 107.698 666.486L106.667 660.053C105.693 655.094 105.298 650.46 105.483 646.151C105.562 641.799 106.593 637.922 108.575 634.519C110.483 631.147 113.747 628.475 118.366 626.5C122.986 624.525 127.504 623.961 131.919 624.805C136.333 625.65 140.417 627.782 144.17 631.201C147.816 634.578 150.85 639.098 153.27 644.761Z" fill="white"/>
<path d="M132.697 588.005L58.751 604.883L64.8367 631.546L55.8304 633.602L41.387 570.321L50.3932 568.265L56.4789 594.929L130.425 578.051L132.697 588.005Z" fill="white"/>
<path d="M123.839 548.537L37.6605 526.126L36.8534 508.154L120.676 478.108L121.15 488.673L99.9516 496.195L101.577 532.381L123.364 537.973L123.839 548.537ZM92.2336 530.245L90.843 499.281L43.4116 516.012L43.488 517.712L92.2336 530.245Z" fill="white"/>
<path d="M141.873 382.719C141.147 384.954 139.801 386.604 137.836 387.67C135.896 388.658 133.77 388.777 131.458 388.026C129.146 387.275 127.496 385.929 126.507 383.989C125.544 381.972 125.425 379.846 126.151 377.611C126.902 375.299 128.248 373.648 130.188 372.66C132.128 371.671 134.254 371.553 136.566 372.304C138.878 373.055 140.529 374.401 141.517 376.341C142.506 378.281 142.624 380.407 141.873 382.719Z" fill="white"/>
<path d="M188.159 283.001L121.636 229.951L141.947 204.482C145.13 200.491 148.751 197.575 152.81 195.734C156.857 193.778 161.039 193.019 165.355 193.455C169.671 193.891 173.856 195.726 177.911 198.96L179.146 199.945C183.138 203.128 185.833 206.832 187.231 211.057C188.617 215.168 188.807 219.413 187.802 223.794C186.796 228.174 184.752 232.296 181.67 236.161L167.726 253.647L194.525 275.019L188.159 283.001ZM160.503 247.887L173.766 231.257C177.151 227.012 178.783 222.82 178.663 218.682C178.479 214.494 176.455 210.858 172.59 207.776L171.64 207.018C167.775 203.936 163.812 202.797 159.751 203.601C155.677 204.29 151.923 206.789 148.487 211.098L135.224 227.728L160.503 247.887Z" fill="white"/>
<path d="M234.495 228.217L178.513 164.141L217.966 129.673L224.044 136.63L192.28 164.38L210.994 185.8L240.194 160.288L246.272 167.245L217.072 192.757L236.106 214.542L268.327 186.392L274.404 193.349L234.495 228.217Z" fill="white"/>
<path d="M308.692 174.119C303.405 177.278 298.114 179.165 292.818 179.78C287.522 180.396 282.534 179.553 277.855 177.251C273.204 174.838 269.175 170.78 265.766 165.075L264.457 162.884L273.118 157.71L274.427 159.901C278.043 165.953 282.518 169.415 287.853 170.286C293.147 171.088 298.576 169.827 304.141 166.502C309.845 163.094 313.424 159.209 314.878 154.848C316.331 150.487 315.894 146.359 313.566 142.463C311.946 139.75 309.961 138.009 307.614 137.241C305.337 136.43 302.689 136.266 299.673 136.746C296.615 137.158 293.222 137.957 289.496 139.146L283.259 141.031C278.351 142.453 273.784 143.341 269.559 143.695C265.333 144.048 261.512 143.499 258.096 142.047C254.708 140.484 251.788 137.651 249.336 133.547C246.884 129.442 245.773 125.292 246.003 121.095C246.303 116.857 247.818 112.837 250.549 109.034C253.35 105.19 257.185 101.813 262.054 98.9036C266.993 95.9527 271.93 94.183 276.864 93.5946C281.827 92.8951 286.419 93.5499 290.64 95.5589C294.889 97.4569 298.51 100.91 301.502 105.919L304.121 110.301L295.46 115.476L292.841 111.093C290.722 107.545 288.253 105.151 285.434 103.908C282.684 102.625 279.676 102.251 276.41 102.787C273.212 103.281 269.944 104.526 266.605 106.521C261.805 109.389 258.589 112.774 256.955 116.676C255.281 120.508 255.607 124.372 257.934 128.268C259.472 130.842 261.345 132.554 263.553 133.406C265.761 134.258 268.325 134.52 271.244 134.192C274.121 133.794 277.389 133.022 281.046 131.875L287.282 129.99C292.066 128.359 296.605 127.346 300.9 126.951C305.223 126.445 309.204 126.946 312.842 128.453C316.439 129.891 319.526 132.767 322.102 137.08C324.679 141.393 325.845 145.793 325.601 150.282C325.356 154.77 323.792 159.103 320.907 163.281C318.051 167.348 313.979 170.96 308.692 174.119Z" fill="white"/>
<path d="M368.384 145.599C358.9 149.158 350.289 149.274 342.549 145.947C334.856 142.516 329.031 135.527 325.073 124.982L318.239 106.774C314.282 96.2283 314.085 87.1709 317.649 79.6014C321.26 71.9276 327.808 66.3112 337.291 62.752C346.85 59.1644 355.476 59.0862 363.169 62.5174C370.909 65.8444 376.758 72.7806 380.716 83.3261L387.549 101.534C391.507 112.08 391.68 121.189 388.069 128.863C384.505 136.432 377.943 142.011 368.384 145.599ZM365.181 137.064C372.084 134.473 376.664 130.417 378.92 124.896C381.147 119.3 380.88 112.822 378.118 105.463L371.028 86.5723C368.266 79.2132 364.22 74.1971 358.889 71.5239C353.53 68.7749 347.398 68.696 340.494 71.287C333.666 73.8496 329.139 77.9291 326.911 83.5255C324.655 89.0459 324.908 95.4857 327.67 102.845L334.76 121.736C337.522 129.095 341.583 134.149 346.942 136.898C352.273 139.571 358.353 139.626 365.181 137.064ZM379.371 160.69C376.564 161.744 373.96 161.725 371.56 160.635C369.265 159.593 367.562 157.592 366.451 154.633L363.12 145.757L372.452 142.254L375.142 149.424C375.997 151.7 377.486 152.439 379.61 151.642L387.121 148.823L390.068 156.675L379.371 160.69Z" fill="white"/>
<path d="M433.059 127.786C426.84 128.915 421.216 128.782 416.186 127.389C411.157 125.996 406.968 123.338 403.621 119.416C400.259 115.414 397.993 110.184 396.821 103.725L386.707 47.9928L396.633 46.1914L406.769 102.044C408.013 108.9 410.78 113.71 415.07 116.473C419.36 119.236 424.814 120.017 431.432 118.816C438.049 117.615 442.881 114.968 445.926 110.874C448.972 106.78 449.872 101.304 448.628 94.4472L438.492 38.5951L448.539 36.772L458.653 92.5045C459.825 98.9628 459.54 104.656 457.799 109.584C456.043 114.432 453.016 118.399 448.717 121.486C444.498 124.557 439.278 126.657 433.059 127.786Z" fill="white"/>
<path d="M494.007 120.028L494.007 34.9426L504.218 34.9426V120.028H494.007Z" fill="white"/>
<path d="M569.363 128.106C563.303 127.006 558.077 124.946 553.684 121.925C549.29 118.904 546.089 114.988 544.08 110.176C542.165 105.298 541.8 99.5908 542.987 93.0528L543.443 90.5412L553.369 92.3426L552.913 94.8542C551.655 101.791 552.747 107.342 556.191 111.509C559.65 115.595 564.569 118.218 570.947 119.375C577.485 120.562 582.736 119.991 586.7 117.663C590.664 115.335 593.051 111.939 593.861 107.474C594.425 104.364 594.077 101.748 592.815 99.6245C591.633 97.5157 589.748 95.65 587.16 94.0274C584.586 92.325 581.505 90.6952 577.917 89.1381L571.98 86.4547C567.348 84.2964 563.324 81.9603 559.91 79.4464C556.495 76.9325 553.979 74.0052 552.362 70.6645C550.839 67.2585 550.504 63.2034 551.357 58.4992C552.211 53.795 554.105 49.9385 557.04 46.9297C560.054 43.9353 563.84 41.9046 568.399 40.8376C573.037 39.7851 578.147 39.7653 583.728 40.7781C589.389 41.8054 594.271 43.7209 598.374 46.5245C602.572 49.2628 605.599 52.777 607.456 57.0671C609.407 61.292 609.862 66.2748 608.82 72.0155L607.908 77.0386L597.982 75.2372L598.893 70.2141C599.631 66.1477 599.347 62.7196 598.042 59.9296C596.816 57.154 594.797 54.8934 591.984 53.1476C589.251 51.4162 585.971 50.2033 582.144 49.5088C576.642 48.5104 571.993 48.9432 568.195 50.8072C564.413 52.5914 562.116 55.716 561.306 60.181C560.77 63.1311 561.054 65.6533 562.156 67.7475C563.259 69.8418 565.017 71.7257 567.431 73.3992C569.86 74.9929 572.828 76.5611 576.337 78.1037L582.274 80.7871C586.949 82.7062 591.034 84.9299 594.528 87.4583C598.117 89.9214 600.785 92.9175 602.533 96.4466C604.296 99.8961 604.728 104.092 603.831 109.036C602.934 113.979 600.917 118.06 597.78 121.28C594.642 124.499 590.613 126.732 585.692 127.981C580.866 129.164 575.422 129.205 569.363 128.106Z" fill="white"/>
<path d="M602.183 132.486L656.661 62.051L673.504 68.3721L668.188 157.258L658.287 153.542L659.701 131.093L625.789 118.365L612.084 136.202L602.183 132.486ZM631.425 110.613L660.444 121.504L663.701 71.3143L662.108 70.7164L631.425 110.613Z" fill="white"/>
<path d="M664.681 155.837L669.357 148.011L679.582 154.121L713.871 96.7307L703.646 90.6211L708.321 82.7952L736.808 99.8149C746.407 105.551 752.361 112.412 754.669 120.398C757.047 128.426 755.222 137.484 749.195 147.571L741.091 161.136C735.023 171.292 727.891 177.225 719.694 178.936C711.609 180.619 702.767 178.592 693.167 172.857L664.681 155.837ZM688.41 159.253L697.905 164.926C705.001 169.166 711.396 170.627 717.092 169.31C722.787 167.993 727.817 163.683 732.181 156.378L740.722 142.083C745.169 134.64 746.602 128.133 745.021 122.563C743.441 116.993 739.103 112.089 732.007 107.85L722.512 102.176L688.41 159.253Z" fill="white"/>
<path d="M748.469 215.018C740.841 208.354 736.658 200.825 735.92 192.433C735.296 184.033 738.69 175.591 746.101 167.109L758.896 152.463C766.307 143.981 774.19 139.515 782.544 139.067C791.013 138.611 799.062 141.715 806.69 148.379C814.379 155.097 818.535 162.656 819.159 171.056C819.897 179.449 816.561 187.886 809.15 196.368L796.354 211.014C788.943 219.497 781.004 223.966 772.535 224.422C764.18 224.87 756.158 221.736 748.469 215.018ZM754.467 208.153C760.021 213.004 765.762 215.115 771.693 214.486C777.676 213.795 783.254 210.49 788.425 204.571L801.701 189.376C806.872 183.457 809.372 177.516 809.2 171.555C809.081 165.533 806.245 160.096 800.692 155.245C795.2 150.446 789.462 148.392 783.478 149.083C777.548 149.712 771.997 152.987 766.825 158.906L753.55 174.101C748.378 180.021 745.852 185.991 745.971 192.013C746.143 197.975 748.975 203.354 754.467 208.153Z" fill="white"/>
<path d="M779.571 241.703L846.094 188.652L867.541 215.547C870.825 219.665 872.976 223.857 873.995 228.123C875.127 232.403 875.07 236.49 873.824 240.386C872.641 244.232 870.212 247.62 866.538 250.55L865.492 251.384C861.121 254.87 856.834 256.578 852.633 256.508C848.432 256.438 844.75 255.332 841.59 253.188L840.259 254.249C842.015 256.58 842.745 259.056 842.45 261.675C842.269 264.307 840.753 266.76 837.902 269.033L815.569 286.843L809.279 278.955L830.661 261.903C832.562 260.388 833.59 258.687 833.744 256.802C833.95 254.98 833.219 253.023 831.551 250.933L813.211 227.935L785.937 249.685L779.571 241.703ZM820.434 222.175L834.909 240.326C838.395 244.698 842.118 247.222 846.078 247.899C850.152 248.588 854.09 247.418 857.891 244.386L858.556 243.856C862.358 240.824 864.369 237.303 864.59 233.291C864.875 229.229 863.249 224.981 859.712 220.546L845.237 202.395L820.434 222.175Z" fill="white"/>
<path d="M858.316 381.267C857.59 379.032 857.709 376.906 858.672 374.889C859.661 372.949 861.311 371.603 863.623 370.852C865.935 370.101 868.061 370.22 870.001 371.208C871.966 372.274 873.312 373.924 874.038 376.159C874.789 378.471 874.671 380.597 873.682 382.537C872.694 384.477 871.043 385.823 868.731 386.574C866.419 387.325 864.293 387.207 862.353 386.218C860.413 385.23 859.067 383.579 858.316 381.267Z" fill="white"/>
<path d="M879.863 480.793L888.97 481.202L888.436 493.102L955.222 496.102L955.756 484.202L964.863 484.611L963.375 517.761C962.873 528.932 959.652 537.426 953.713 543.243C947.77 549.141 938.93 551.827 927.191 551.299L911.406 550.59C899.587 550.06 890.982 546.591 885.592 540.184C880.279 533.862 877.873 525.115 878.375 513.943L879.863 480.793ZM888.099 503.308L887.603 514.358C887.232 522.615 888.976 528.939 892.835 533.33C896.693 537.722 902.873 540.108 911.373 540.49L928.008 541.237C936.67 541.626 943.079 539.805 947.235 535.774C951.391 531.742 953.654 525.598 954.025 517.341L954.521 506.291L888.099 503.308Z" fill="white"/>
<path d="M867.452 582.616C869.706 572.741 874.353 565.49 881.394 560.863C888.495 556.333 897.537 555.321 908.518 557.828L927.479 562.155C938.46 564.662 946.127 569.487 950.481 576.632C954.896 583.873 955.976 592.432 953.722 602.307C951.45 612.261 946.764 619.503 939.662 624.033C932.622 628.66 923.611 629.72 912.629 627.214L893.669 622.886C882.687 620.38 874.989 615.506 870.575 608.264C866.221 601.12 865.18 592.57 867.452 582.616ZM876.34 584.645C874.699 591.834 875.561 597.89 878.925 602.814C882.369 607.756 887.922 611.102 895.585 612.851L915.257 617.341C922.92 619.09 929.336 618.476 934.503 615.5C939.75 612.541 943.194 607.467 944.835 600.278C946.458 593.168 945.547 587.142 942.104 582.2C938.739 577.276 933.225 573.94 925.562 572.191L905.89 567.701C898.227 565.952 891.772 566.556 886.526 569.515C881.358 572.491 877.963 577.534 876.34 584.645Z" fill="white"/>
<path d="M846.686 646.408C849.171 640.596 852.38 635.975 856.313 632.545C860.247 629.115 864.772 627.083 869.89 626.451C875.081 625.85 880.695 626.839 886.731 629.419L938.815 651.681L934.85 660.958L882.654 638.648C876.246 635.909 870.707 635.568 866.038 637.627C861.369 639.685 857.713 643.806 855.069 649.991C852.426 656.175 851.974 661.666 853.713 666.463C855.452 671.26 859.525 675.028 865.933 677.767L918.13 700.077L914.117 709.466L862.032 687.204C855.997 684.624 851.402 681.25 848.249 677.082C845.169 672.946 843.526 668.234 843.319 662.946C843.08 657.732 844.202 652.22 846.686 646.408Z" fill="white"/>
<path d="M819.164 702.18L882.464 743.965L897.531 721.14L905.24 726.229L869.483 780.4L861.773 775.311L876.839 752.486L813.539 710.702L819.164 702.18Z" fill="white"/>
<path d="M772.28 758.99C779.28 751.669 786.988 747.828 795.405 747.467C803.825 747.22 812.106 750.989 820.247 758.773L834.304 772.213C842.445 779.997 846.553 788.072 846.626 796.438C846.701 804.919 843.239 812.82 836.239 820.142C829.183 827.522 821.446 831.335 813.026 831.581C804.609 831.942 796.33 828.23 788.188 820.446L774.131 807.006C765.99 799.222 761.881 791.09 761.806 782.609C761.732 774.243 765.224 766.37 772.28 758.99ZM778.869 765.29C773.773 770.62 771.407 776.261 771.769 782.214C772.191 788.222 775.242 793.943 780.924 799.374L795.508 813.318C801.189 818.75 807.011 821.514 812.974 821.609C818.995 821.761 824.554 819.172 829.65 813.842C834.69 808.57 836.999 802.93 836.578 796.922C836.215 790.969 833.193 785.277 827.512 779.845L812.927 765.901C807.246 760.469 801.395 757.677 795.373 757.526C789.41 757.431 783.909 760.019 778.869 765.29Z" fill="white"/>
<path d="M744.232 788.863L794.244 857.699L766.415 877.918C762.153 881.014 757.869 882.975 753.561 883.801C749.235 884.74 745.154 884.5 741.318 883.08C737.53 881.726 734.254 879.148 731.492 875.345L730.706 874.264C727.419 869.74 725.905 865.381 726.163 861.187C726.421 856.993 727.692 853.365 729.975 850.304L728.975 848.928C726.567 850.577 724.062 851.195 721.458 850.783C718.837 850.484 716.455 848.859 714.312 845.909L697.522 822.8L705.684 816.87L721.759 838.996C723.188 840.962 724.841 842.065 726.717 842.304C728.528 842.591 730.515 841.949 732.679 840.377L756.476 823.087L735.971 794.864L744.232 788.863ZM761.906 830.561L743.124 844.207C738.6 847.493 735.912 851.1 735.058 855.025C734.186 859.064 735.179 863.05 738.037 866.984L738.537 867.672C741.395 871.606 744.823 873.773 748.82 874.174C752.865 874.641 757.182 873.207 761.771 869.873L780.554 856.227L761.906 830.561Z" fill="white"/>
<path d="M601.267 861.269C603.532 860.644 605.651 860.858 607.623 861.911C609.517 862.985 610.787 864.694 611.434 867.038C612.08 869.381 611.867 871.5 610.792 873.394C609.639 875.309 607.93 876.579 605.665 877.204C603.322 877.851 601.203 877.637 599.309 876.563C597.415 875.488 596.145 873.779 595.498 871.436C594.852 869.092 595.066 866.974 596.14 865.08C597.215 863.186 598.924 861.916 601.267 861.269Z" fill="white"/>
</svg>
